<mxfile host="app.diagrams.net" modified="2023-03-02T03:11:30.381Z" agent="5.0 (Macintosh; Intel Mac OS X 10_15_7) AppleWebKit/537.36 (KHTML, like Gecko) Chrome/110.0.0.0 Safari/537.36" etag="oOHQ2R4qiWX615_SRolJ" version="20.8.23" type="github">
  <diagram name="第 1 页" id="yHGqQeFRmc9Kj9ZrsHsq">
    <mxGraphModel dx="944" dy="568" grid="1" gridSize="10" guides="1" tooltips="1" connect="1" arrows="1" fold="1" page="1" pageScale="1" pageWidth="827" pageHeight="1169" math="0" shadow="0">
      <root>
        <mxCell id="0" />
        <mxCell id="1" parent="0" />
        <mxCell id="7FRvukNz8RzcdHfqFW1u-4" value="4" style="ellipse;whiteSpace=wrap;html=1;aspect=fixed;fillColor=#bac8d3;strokeColor=#23445d;" vertex="1" parent="1">
          <mxGeometry x="130" y="165" width="40" height="40" as="geometry" />
        </mxCell>
        <mxCell id="7FRvukNz8RzcdHfqFW1u-18" value="2" style="ellipse;whiteSpace=wrap;html=1;aspect=fixed;fillColor=#fad9d5;strokeColor=#ae4132;" vertex="1" parent="1">
          <mxGeometry x="80" y="225" width="40" height="40" as="geometry" />
        </mxCell>
        <mxCell id="7FRvukNz8RzcdHfqFW1u-19" value="1" style="ellipse;whiteSpace=wrap;html=1;aspect=fixed;fillColor=#fad9d5;strokeColor=#ae4132;" vertex="1" parent="1">
          <mxGeometry x="30" y="285" width="40" height="40" as="geometry" />
        </mxCell>
        <mxCell id="7FRvukNz8RzcdHfqFW1u-20" value="" style="endArrow=classic;html=1;rounded=0;exitX=0;exitY=1;exitDx=0;exitDy=0;" edge="1" parent="1" source="7FRvukNz8RzcdHfqFW1u-4" target="7FRvukNz8RzcdHfqFW1u-18">
          <mxGeometry width="50" height="50" relative="1" as="geometry">
            <mxPoint x="130" y="215" as="sourcePoint" />
            <mxPoint x="140" y="285" as="targetPoint" />
          </mxGeometry>
        </mxCell>
        <mxCell id="7FRvukNz8RzcdHfqFW1u-22" value="" style="endArrow=classic;html=1;rounded=0;entryX=1;entryY=0;entryDx=0;entryDy=0;" edge="1" parent="1" source="7FRvukNz8RzcdHfqFW1u-18" target="7FRvukNz8RzcdHfqFW1u-19">
          <mxGeometry width="50" height="50" relative="1" as="geometry">
            <mxPoint x="150" y="325" as="sourcePoint" />
            <mxPoint x="122" y="239" as="targetPoint" />
          </mxGeometry>
        </mxCell>
        <mxCell id="7FRvukNz8RzcdHfqFW1u-23" value="左3情况" style="text;html=1;align=center;verticalAlign=middle;resizable=0;points=[];autosize=1;strokeColor=none;fillColor=none;" vertex="1" parent="1">
          <mxGeometry x="50" y="110" width="70" height="30" as="geometry" />
        </mxCell>
        <mxCell id="7FRvukNz8RzcdHfqFW1u-24" value="右3情况" style="text;html=1;align=center;verticalAlign=middle;resizable=0;points=[];autosize=1;strokeColor=none;fillColor=none;" vertex="1" parent="1">
          <mxGeometry x="213.5" y="110" width="70" height="30" as="geometry" />
        </mxCell>
        <mxCell id="7FRvukNz8RzcdHfqFW1u-26" value="5" style="ellipse;whiteSpace=wrap;html=1;aspect=fixed;fillColor=#bac8d3;strokeColor=#23445d;" vertex="1" parent="1">
          <mxGeometry x="273.5" y="165" width="40" height="40" as="geometry" />
        </mxCell>
        <mxCell id="7FRvukNz8RzcdHfqFW1u-27" value="7" style="ellipse;whiteSpace=wrap;html=1;aspect=fixed;fillColor=#fad9d5;strokeColor=#ae4132;" vertex="1" parent="1">
          <mxGeometry x="373.5" y="285" width="40" height="40" as="geometry" />
        </mxCell>
        <mxCell id="7FRvukNz8RzcdHfqFW1u-28" value="6" style="ellipse;whiteSpace=wrap;html=1;aspect=fixed;fillColor=#fad9d5;strokeColor=#ae4132;" vertex="1" parent="1">
          <mxGeometry x="323.5" y="225" width="40" height="40" as="geometry" />
        </mxCell>
        <mxCell id="7FRvukNz8RzcdHfqFW1u-29" value="" style="endArrow=classic;html=1;rounded=0;entryX=0;entryY=0;entryDx=0;entryDy=0;exitX=1;exitY=1;exitDx=0;exitDy=0;" edge="1" parent="1" source="7FRvukNz8RzcdHfqFW1u-26" target="7FRvukNz8RzcdHfqFW1u-28">
          <mxGeometry width="50" height="50" relative="1" as="geometry">
            <mxPoint x="298.5" y="200" as="sourcePoint" />
            <mxPoint x="70.5" y="229" as="targetPoint" />
          </mxGeometry>
        </mxCell>
        <mxCell id="7FRvukNz8RzcdHfqFW1u-31" value="" style="endArrow=classic;html=1;rounded=0;entryX=0;entryY=0;entryDx=0;entryDy=0;exitX=1;exitY=1;exitDx=0;exitDy=0;" edge="1" parent="1" source="7FRvukNz8RzcdHfqFW1u-28" target="7FRvukNz8RzcdHfqFW1u-27">
          <mxGeometry width="50" height="50" relative="1" as="geometry">
            <mxPoint x="258.5" y="320" as="sourcePoint" />
            <mxPoint x="308.5" y="270" as="targetPoint" />
          </mxGeometry>
        </mxCell>
        <mxCell id="7FRvukNz8RzcdHfqFW1u-32" value="左3带叔叔节点" style="text;html=1;align=center;verticalAlign=middle;resizable=0;points=[];autosize=1;strokeColor=none;fillColor=none;" vertex="1" parent="1">
          <mxGeometry x="10" y="360" width="100" height="30" as="geometry" />
        </mxCell>
        <mxCell id="7FRvukNz8RzcdHfqFW1u-33" value="4" style="ellipse;whiteSpace=wrap;html=1;aspect=fixed;fillColor=#bac8d3;strokeColor=#23445d;" vertex="1" parent="1">
          <mxGeometry x="110" y="390" width="40" height="40" as="geometry" />
        </mxCell>
        <mxCell id="7FRvukNz8RzcdHfqFW1u-34" value="2" style="ellipse;whiteSpace=wrap;html=1;aspect=fixed;fillColor=#fad9d5;strokeColor=#ae4132;" vertex="1" parent="1">
          <mxGeometry x="60" y="450" width="40" height="40" as="geometry" />
        </mxCell>
        <mxCell id="7FRvukNz8RzcdHfqFW1u-35" value="1" style="ellipse;whiteSpace=wrap;html=1;aspect=fixed;fillColor=#fad9d5;strokeColor=#ae4132;" vertex="1" parent="1">
          <mxGeometry x="10" y="510" width="40" height="40" as="geometry" />
        </mxCell>
        <mxCell id="7FRvukNz8RzcdHfqFW1u-36" value="" style="endArrow=classic;html=1;rounded=0;exitX=0;exitY=1;exitDx=0;exitDy=0;" edge="1" parent="1" source="7FRvukNz8RzcdHfqFW1u-33" target="7FRvukNz8RzcdHfqFW1u-34">
          <mxGeometry width="50" height="50" relative="1" as="geometry">
            <mxPoint x="110" y="440" as="sourcePoint" />
            <mxPoint x="120" y="510" as="targetPoint" />
          </mxGeometry>
        </mxCell>
        <mxCell id="7FRvukNz8RzcdHfqFW1u-37" value="" style="endArrow=classic;html=1;rounded=0;entryX=1;entryY=0;entryDx=0;entryDy=0;" edge="1" parent="1" source="7FRvukNz8RzcdHfqFW1u-34" target="7FRvukNz8RzcdHfqFW1u-35">
          <mxGeometry width="50" height="50" relative="1" as="geometry">
            <mxPoint x="130" y="550" as="sourcePoint" />
            <mxPoint x="102" y="464" as="targetPoint" />
          </mxGeometry>
        </mxCell>
        <mxCell id="7FRvukNz8RzcdHfqFW1u-38" value="4.5" style="ellipse;whiteSpace=wrap;html=1;aspect=fixed;fillColor=#fad9d5;strokeColor=#ae4132;" vertex="1" parent="1">
          <mxGeometry x="160" y="450" width="40" height="40" as="geometry" />
        </mxCell>
        <mxCell id="7FRvukNz8RzcdHfqFW1u-39" value="" style="endArrow=classic;html=1;rounded=0;exitX=1;exitY=1;exitDx=0;exitDy=0;entryX=0;entryY=0;entryDx=0;entryDy=0;" edge="1" parent="1" source="7FRvukNz8RzcdHfqFW1u-33" target="7FRvukNz8RzcdHfqFW1u-38">
          <mxGeometry width="50" height="50" relative="1" as="geometry">
            <mxPoint x="340" y="460" as="sourcePoint" />
            <mxPoint x="390" y="410" as="targetPoint" />
          </mxGeometry>
        </mxCell>
        <mxCell id="7FRvukNz8RzcdHfqFW1u-40" value="右3带叔叔节点" style="text;html=1;align=center;verticalAlign=middle;resizable=0;points=[];autosize=1;strokeColor=none;fillColor=none;" vertex="1" parent="1">
          <mxGeometry x="340" y="360" width="100" height="30" as="geometry" />
        </mxCell>
        <mxCell id="7FRvukNz8RzcdHfqFW1u-41" value="4" style="ellipse;whiteSpace=wrap;html=1;aspect=fixed;fillColor=#bac8d3;strokeColor=#23445d;" vertex="1" parent="1">
          <mxGeometry x="440" y="390" width="40" height="40" as="geometry" />
        </mxCell>
        <mxCell id="7FRvukNz8RzcdHfqFW1u-42" value="2" style="ellipse;whiteSpace=wrap;html=1;aspect=fixed;fillColor=#fad9d5;strokeColor=#ae4132;" vertex="1" parent="1">
          <mxGeometry x="390" y="450" width="40" height="40" as="geometry" />
        </mxCell>
        <mxCell id="7FRvukNz8RzcdHfqFW1u-43" value="1" style="ellipse;whiteSpace=wrap;html=1;aspect=fixed;fillColor=#fad9d5;strokeColor=#ae4132;" vertex="1" parent="1">
          <mxGeometry x="540" y="510" width="40" height="40" as="geometry" />
        </mxCell>
        <mxCell id="7FRvukNz8RzcdHfqFW1u-44" value="" style="endArrow=classic;html=1;rounded=0;exitX=0;exitY=1;exitDx=0;exitDy=0;" edge="1" parent="1" source="7FRvukNz8RzcdHfqFW1u-41" target="7FRvukNz8RzcdHfqFW1u-42">
          <mxGeometry width="50" height="50" relative="1" as="geometry">
            <mxPoint x="440" y="440" as="sourcePoint" />
            <mxPoint x="450" y="510" as="targetPoint" />
          </mxGeometry>
        </mxCell>
        <mxCell id="7FRvukNz8RzcdHfqFW1u-46" value="4.5" style="ellipse;whiteSpace=wrap;html=1;aspect=fixed;fillColor=#fad9d5;strokeColor=#ae4132;" vertex="1" parent="1">
          <mxGeometry x="490" y="450" width="40" height="40" as="geometry" />
        </mxCell>
        <mxCell id="7FRvukNz8RzcdHfqFW1u-47" value="" style="endArrow=classic;html=1;rounded=0;exitX=1;exitY=1;exitDx=0;exitDy=0;entryX=0;entryY=0;entryDx=0;entryDy=0;" edge="1" parent="1" source="7FRvukNz8RzcdHfqFW1u-41" target="7FRvukNz8RzcdHfqFW1u-46">
          <mxGeometry width="50" height="50" relative="1" as="geometry">
            <mxPoint x="670" y="460" as="sourcePoint" />
            <mxPoint x="720" y="410" as="targetPoint" />
          </mxGeometry>
        </mxCell>
        <mxCell id="7FRvukNz8RzcdHfqFW1u-48" value="" style="endArrow=classic;html=1;rounded=0;entryX=0;entryY=0;entryDx=0;entryDy=0;exitX=1;exitY=1;exitDx=0;exitDy=0;" edge="1" parent="1" source="7FRvukNz8RzcdHfqFW1u-46" target="7FRvukNz8RzcdHfqFW1u-43">
          <mxGeometry width="50" height="50" relative="1" as="geometry">
            <mxPoint x="340" y="460" as="sourcePoint" />
            <mxPoint x="390" y="410" as="targetPoint" />
          </mxGeometry>
        </mxCell>
        <mxCell id="7FRvukNz8RzcdHfqFW1u-49" value="4" style="ellipse;whiteSpace=wrap;html=1;aspect=fixed;fillColor=#bac8d3;strokeColor=#23445d;" vertex="1" parent="1">
          <mxGeometry x="540" y="165" width="40" height="40" as="geometry" />
        </mxCell>
        <mxCell id="7FRvukNz8RzcdHfqFW1u-50" value="2" style="ellipse;whiteSpace=wrap;html=1;aspect=fixed;fillColor=#fad9d5;strokeColor=#ae4132;" vertex="1" parent="1">
          <mxGeometry x="490" y="225" width="40" height="40" as="geometry" />
        </mxCell>
        <mxCell id="7FRvukNz8RzcdHfqFW1u-51" value="2.5" style="ellipse;whiteSpace=wrap;html=1;aspect=fixed;fillColor=#fad9d5;strokeColor=#ae4132;" vertex="1" parent="1">
          <mxGeometry x="540" y="285" width="40" height="40" as="geometry" />
        </mxCell>
        <mxCell id="7FRvukNz8RzcdHfqFW1u-52" value="" style="endArrow=classic;html=1;rounded=0;exitX=0;exitY=1;exitDx=0;exitDy=0;" edge="1" parent="1" source="7FRvukNz8RzcdHfqFW1u-49" target="7FRvukNz8RzcdHfqFW1u-50">
          <mxGeometry width="50" height="50" relative="1" as="geometry">
            <mxPoint x="540" y="215" as="sourcePoint" />
            <mxPoint x="550" y="285" as="targetPoint" />
          </mxGeometry>
        </mxCell>
        <mxCell id="7FRvukNz8RzcdHfqFW1u-53" value="" style="endArrow=classic;html=1;rounded=0;entryX=0;entryY=0;entryDx=0;entryDy=0;" edge="1" parent="1" source="7FRvukNz8RzcdHfqFW1u-50" target="7FRvukNz8RzcdHfqFW1u-51">
          <mxGeometry width="50" height="50" relative="1" as="geometry">
            <mxPoint x="560" y="325" as="sourcePoint" />
            <mxPoint x="532" y="239" as="targetPoint" />
          </mxGeometry>
        </mxCell>
        <mxCell id="7FRvukNz8RzcdHfqFW1u-54" value="左3小情况" style="text;html=1;align=center;verticalAlign=middle;resizable=0;points=[];autosize=1;strokeColor=none;fillColor=none;" vertex="1" parent="1">
          <mxGeometry x="440" y="110" width="80" height="30" as="geometry" />
        </mxCell>
        <mxCell id="7FRvukNz8RzcdHfqFW1u-55" value="4" style="ellipse;whiteSpace=wrap;html=1;aspect=fixed;fillColor=#bac8d3;strokeColor=#23445d;" vertex="1" parent="1">
          <mxGeometry x="680" y="165" width="40" height="40" as="geometry" />
        </mxCell>
        <mxCell id="7FRvukNz8RzcdHfqFW1u-56" value="5" style="ellipse;whiteSpace=wrap;html=1;aspect=fixed;fillColor=#fad9d5;strokeColor=#ae4132;" vertex="1" parent="1">
          <mxGeometry x="750" y="225" width="40" height="40" as="geometry" />
        </mxCell>
        <mxCell id="7FRvukNz8RzcdHfqFW1u-57" value="4.5" style="ellipse;whiteSpace=wrap;html=1;aspect=fixed;fillColor=#fad9d5;strokeColor=#ae4132;" vertex="1" parent="1">
          <mxGeometry x="710" y="285" width="40" height="40" as="geometry" />
        </mxCell>
        <mxCell id="7FRvukNz8RzcdHfqFW1u-58" value="" style="endArrow=classic;html=1;rounded=0;exitX=1;exitY=1;exitDx=0;exitDy=0;" edge="1" parent="1" source="7FRvukNz8RzcdHfqFW1u-55" target="7FRvukNz8RzcdHfqFW1u-56">
          <mxGeometry width="50" height="50" relative="1" as="geometry">
            <mxPoint x="720" y="200" as="sourcePoint" />
            <mxPoint x="690" y="285" as="targetPoint" />
          </mxGeometry>
        </mxCell>
        <mxCell id="7FRvukNz8RzcdHfqFW1u-59" value="" style="endArrow=classic;html=1;rounded=0;entryX=0.69;entryY=0.015;entryDx=0;entryDy=0;entryPerimeter=0;" edge="1" parent="1" source="7FRvukNz8RzcdHfqFW1u-56" target="7FRvukNz8RzcdHfqFW1u-57">
          <mxGeometry width="50" height="50" relative="1" as="geometry">
            <mxPoint x="700" y="325" as="sourcePoint" />
            <mxPoint x="672" y="239" as="targetPoint" />
          </mxGeometry>
        </mxCell>
        <mxCell id="7FRvukNz8RzcdHfqFW1u-60" value="右3小情况" style="text;html=1;align=center;verticalAlign=middle;resizable=0;points=[];autosize=1;strokeColor=none;fillColor=none;" vertex="1" parent="1">
          <mxGeometry x="620" y="110" width="80" height="30" as="geometry" />
        </mxCell>
      </root>
    </mxGraphModel>
  </diagram>
</mxfile>
